<svg width="58" height="58" viewBox="0 0 58 58" fill="none" xmlns="http://www.w3.org/2000/svg">
<path d="M12.1323 12.2416H26.5073C27.825 12.2416 28.9031 11.1635 28.9031 9.84577C28.9031 8.52807 27.825 7.44995 26.5073 7.44995H12.1323C9.49694 7.44995 7.3407 9.60619 7.3407 12.2416V45.7831C7.3407 48.4185 9.49694 50.5747 12.1323 50.5747H26.5073C27.825 50.5747 28.9031 49.4966 28.9031 48.1789C28.9031 46.8612 27.825 45.7831 26.5073 45.7831H12.1323V12.2416Z" fill="#199A8E"/>
<path d="M49.6269 28.1734L42.9425 21.489C42.7759 21.3179 42.562 21.2003 42.3282 21.1514C42.0943 21.1025 41.8512 21.1245 41.63 21.2145C41.4087 21.3046 41.2194 21.4586 41.0861 21.6569C40.9529 21.8552 40.8819 22.0887 40.8821 22.3276V26.6161H24.1114C22.7937 26.6161 21.7156 27.6942 21.7156 29.0119C21.7156 30.3296 22.7937 31.4077 24.1114 31.4077H40.8821V35.6963C40.8821 36.7744 42.1759 37.3015 42.9186 36.5348L49.6029 29.8505C50.0821 29.3953 50.0821 28.6286 49.6269 28.1734Z" fill="#199A8E"/>
</svg>
