<svg width="99" height="17" viewBox="0 0 99 17" fill="none" xmlns="http://www.w3.org/2000/svg">
<path d="M10.4525 10.3535C10.3014 10.4999 10.232 10.7117 10.2664 10.9193L10.785 13.7893C10.8287 14.0326 10.726 14.2787 10.5225 14.4193C10.323 14.5652 10.0575 14.5827 9.83995 14.466L7.25637 13.1185C7.16654 13.0707 7.06679 13.045 6.9647 13.0421H6.80662C6.75179 13.0502 6.69812 13.0677 6.64912 13.0946L4.06495 14.4485C3.9372 14.5127 3.79254 14.5354 3.65079 14.5127C3.30545 14.4473 3.07504 14.1183 3.13162 13.7712L3.65079 10.9012C3.6852 10.6918 3.61579 10.4789 3.4647 10.3302L1.35829 8.2885C1.18212 8.11758 1.12087 7.86091 1.20137 7.62933C1.27954 7.39833 1.47904 7.22975 1.71995 7.19183L4.61912 6.77125C4.83962 6.7485 5.03329 6.61433 5.13245 6.416L6.40995 3.79683C6.44029 3.7385 6.47937 3.68483 6.52662 3.63933L6.57912 3.5985C6.60654 3.56816 6.63804 3.54308 6.67304 3.52266L6.73662 3.49933L6.83579 3.4585H7.08137C7.3007 3.48125 7.49379 3.6125 7.5947 3.8085L8.88912 6.416C8.98245 6.60675 9.16387 6.73916 9.37329 6.77125L12.2725 7.19183C12.5175 7.22683 12.7222 7.396 12.8033 7.62933C12.8797 7.86325 12.8138 8.11991 12.6341 8.2885L10.4525 10.3535Z" fill="#199A8E"/>
<path d="M29.4525 10.3535C29.3014 10.4999 29.232 10.7117 29.2664 10.9193L29.785 13.7893C29.8287 14.0326 29.726 14.2787 29.5225 14.4193C29.323 14.5652 29.0575 14.5827 28.84 14.466L26.2564 13.1185C26.1665 13.0707 26.0668 13.045 25.9647 13.0421H25.8066C25.7518 13.0502 25.6981 13.0677 25.6491 13.0946L23.065 14.4485C22.9372 14.5127 22.7925 14.5354 22.6508 14.5127C22.3055 14.4473 22.075 14.1183 22.1316 13.7712L22.6508 10.9012C22.6852 10.6918 22.6158 10.4789 22.4647 10.3302L20.3583 8.2885C20.1821 8.11758 20.1209 7.86091 20.2014 7.62933C20.2795 7.39833 20.479 7.22975 20.72 7.19183L23.6191 6.77125C23.8396 6.7485 24.0333 6.61433 24.1325 6.416L25.41 3.79683C25.4403 3.7385 25.4794 3.68483 25.5266 3.63933L25.5791 3.5985C25.6065 3.56816 25.638 3.54308 25.673 3.52266L25.7366 3.49933L25.8358 3.4585H26.0814C26.3007 3.48125 26.4938 3.6125 26.5947 3.8085L27.8891 6.416C27.9825 6.60675 28.1639 6.73916 28.3733 6.77125L31.2725 7.19183C31.5175 7.22683 31.7222 7.396 31.8033 7.62933C31.8797 7.86325 31.8138 8.11991 31.6341 8.2885L29.4525 10.3535Z" fill="#199A8E"/>
<path d="M48.4525 10.3535C48.3014 10.4999 48.232 10.7117 48.2664 10.9193L48.785 13.7893C48.8287 14.0326 48.726 14.2787 48.5225 14.4193C48.323 14.5652 48.0575 14.5827 47.84 14.466L45.2564 13.1185C45.1665 13.0707 45.0668 13.045 44.9647 13.0421H44.8066C44.7518 13.0502 44.6981 13.0677 44.6491 13.0946L42.065 14.4485C41.9372 14.5127 41.7925 14.5354 41.6508 14.5127C41.3055 14.4473 41.075 14.1183 41.1316 13.7712L41.6508 10.9012C41.6852 10.6918 41.6158 10.4789 41.4647 10.3302L39.3583 8.2885C39.1821 8.11758 39.1209 7.86091 39.2014 7.62933C39.2795 7.39833 39.479 7.22975 39.72 7.19183L42.6191 6.77125C42.8396 6.7485 43.0333 6.61433 43.1325 6.416L44.41 3.79683C44.4403 3.7385 44.4794 3.68483 44.5266 3.63933L44.5791 3.5985C44.6065 3.56816 44.638 3.54308 44.673 3.52266L44.7366 3.49933L44.8358 3.4585H45.0814C45.3007 3.48125 45.4938 3.6125 45.5947 3.8085L46.8891 6.416C46.9825 6.60675 47.1639 6.73916 47.3733 6.77125L50.2725 7.19183C50.5175 7.22683 50.7222 7.396 50.8033 7.62933C50.8797 7.86325 50.8138 8.11991 50.6341 8.2885L48.4525 10.3535Z" fill="#199A8E"/>
<path d="M67.4525 10.3535C67.3014 10.4999 67.232 10.7117 67.2664 10.9193L67.785 13.7893C67.8287 14.0326 67.726 14.2787 67.5225 14.4193C67.323 14.5652 67.0575 14.5827 66.84 14.466L64.2564 13.1185C64.1665 13.0707 64.0668 13.045 63.9647 13.0421H63.8066C63.7518 13.0502 63.6981 13.0677 63.6491 13.0946L61.065 14.4485C60.9372 14.5127 60.7925 14.5354 60.6508 14.5127C60.3055 14.4473 60.075 14.1183 60.1316 13.7712L60.6508 10.9012C60.6852 10.6918 60.6158 10.4789 60.4647 10.3302L58.3583 8.2885C58.1821 8.11758 58.1209 7.86091 58.2014 7.62933C58.2795 7.39833 58.479 7.22975 58.72 7.19183L61.6191 6.77125C61.8396 6.7485 62.0333 6.61433 62.1325 6.416L63.41 3.79683C63.4403 3.7385 63.4794 3.68483 63.5266 3.63933L63.5791 3.5985C63.6065 3.56816 63.638 3.54308 63.673 3.52266L63.7366 3.49933L63.8358 3.4585H64.0814C64.3007 3.48125 64.4938 3.6125 64.5947 3.8085L65.8891 6.416C65.9825 6.60675 66.1639 6.73916 66.3733 6.77125L69.2725 7.19183C69.5175 7.22683 69.7222 7.396 69.8033 7.62933C69.8797 7.86325 69.8138 8.11991 69.6341 8.2885L67.4525 10.3535Z" fill="#199A8E"/>
<path d="M76.7209 12.1108V10.6442L81.0412 3.81818H82.2642V5.90625H81.5185L78.6101 10.5149V10.5945H84.6406V12.1108H76.7209ZM81.5781 14V11.6634L81.598 11.0071V3.81818H83.3381V14H81.5781ZM87.0705 14.1094C86.7689 14.1094 86.5104 14.0033 86.2949 13.7912C86.0795 13.5791 85.9734 13.3205 85.9767 13.0156C85.9734 12.7173 86.0795 12.4621 86.2949 12.25C86.5104 12.0379 86.7689 11.9318 87.0705 11.9318C87.3622 11.9318 87.6157 12.0379 87.8311 12.25C88.0499 12.4621 88.1609 12.7173 88.1642 13.0156C88.1609 13.2178 88.1079 13.4018 88.0051 13.5675C87.9057 13.7332 87.7731 13.8658 87.6074 13.9652C87.445 14.0613 87.266 14.1094 87.0705 14.1094ZM93.3695 14.1939C92.5508 14.1939 91.8482 13.9867 91.2615 13.5724C90.6782 13.1548 90.2291 12.5533 89.9142 11.7678C89.6027 10.9789 89.4469 10.0294 89.4469 8.91903C89.4502 7.80871 89.6077 6.86411 89.9192 6.08523C90.2341 5.30303 90.6832 4.70644 91.2665 4.29545C91.8532 3.88447 92.5542 3.67898 93.3695 3.67898C94.1848 3.67898 94.8858 3.88447 95.4725 4.29545C96.0591 4.70644 96.5082 5.30303 96.8198 6.08523C97.1346 6.86742 97.2921 7.81203 97.2921 8.91903C97.2921 10.0327 97.1346 10.9839 96.8198 11.7727C96.5082 12.5582 96.0591 13.1581 95.4725 13.5724C94.8891 13.9867 94.1882 14.1939 93.3695 14.1939ZM93.3695 12.6378C94.0059 12.6378 94.508 12.3246 94.8759 11.6982C95.2471 11.0684 95.4327 10.142 95.4327 8.91903C95.4327 8.11032 95.3482 7.43087 95.1792 6.88068C95.0101 6.33049 94.7715 5.91619 94.4632 5.63778C94.155 5.35606 93.7904 5.2152 93.3695 5.2152C92.7364 5.2152 92.236 5.53007 91.8681 6.1598C91.5002 6.78622 91.3146 7.70597 91.3113 8.91903C91.3079 9.73106 91.3891 10.4138 91.5549 10.9673C91.7239 11.5208 91.9625 11.9384 92.2708 12.2202C92.579 12.4986 92.9453 12.6378 93.3695 12.6378Z" fill="#199A8E"/>
</svg>
