<svg width="147" height="174" viewBox="0 0 147 174" fill="none" xmlns="http://www.w3.org/2000/svg">
<g filter="url(#filter0_d_16_2745)">
<rect x="59" y="42" width="64" height="56" rx="16" fill="white"/>
</g>
<g clip-path="url(#clip0_16_2745)">
<path d="M83 79.3333C85.2091 79.3333 87 77.5425 87 75.3333C87 73.1242 85.2091 71.3333 83 71.3333C80.7909 71.3333 79 73.1242 79 75.3333C79 77.5425 80.7909 79.3333 83 79.3333Z" stroke="#199A8E" stroke-width="2" stroke-linecap="round" stroke-linejoin="round"/>
<path d="M96.3333 82C97.8061 82 99 80.8061 99 79.3334C99 77.8606 97.8061 76.6667 96.3333 76.6667C94.8605 76.6667 93.6666 77.8606 93.6666 79.3334C93.6666 80.8061 94.8605 82 96.3333 82Z" stroke="#199A8E" stroke-width="2" stroke-linecap="round" stroke-linejoin="round"/>
<path d="M94.3334 70C97.6471 70 100.333 67.3137 100.333 64C100.333 60.6863 97.6471 58 94.3334 58C91.0197 58 88.3334 60.6863 88.3334 64C88.3334 67.3137 91.0197 70 94.3334 70Z" stroke="#199A8E" stroke-width="2" stroke-linecap="round" stroke-linejoin="round"/>
</g>
<defs>
<filter id="filter0_d_16_2745" x="0" y="0" width="182" height="174" filterUnits="userSpaceOnUse" color-interpolation-filters="sRGB">
<feFlood flood-opacity="0" result="BackgroundImageFix"/>
<feColorMatrix in="SourceAlpha" type="matrix" values="0 0 0 0 0 0 0 0 0 0 0 0 0 0 0 0 0 0 127 0" result="hardAlpha"/>
<feMorphology radius="11" operator="erode" in="SourceAlpha" result="effect1_dropShadow_16_2745"/>
<feOffset dy="17"/>
<feGaussianBlur stdDeviation="35"/>
<feColorMatrix type="matrix" values="0 0 0 0 0 0 0 0 0 0 0 0 0 0 0 0 0 0 0.1 0"/>
<feBlend mode="normal" in2="BackgroundImageFix" result="effect1_dropShadow_16_2745"/>
<feBlend mode="normal" in="SourceGraphic" in2="effect1_dropShadow_16_2745" result="shape"/>
</filter>
<clipPath id="clip0_16_2745">
<rect width="32" height="32" fill="white" transform="translate(75 54)"/>
</clipPath>
</defs>
</svg>
