<svg width="33" height="32" viewBox="0 0 33 32" fill="none" xmlns="http://www.w3.org/2000/svg">
<path d="M12.7601 29.3334H20.7601C27.4268 29.3334 30.0934 26.6667 30.0934 20V12C30.0934 5.33335 27.4268 2.66669 20.7601 2.66669H12.7601C6.09342 2.66669 3.42676 5.33335 3.42676 12V20C3.42676 26.6667 6.09342 29.3334 12.7601 29.3334Z" stroke="#199A8E" stroke-width="2" stroke-linecap="round" stroke-linejoin="round"/>
<path d="M3.42676 16.9333L11.4268 16.9067C12.4268 16.9067 13.5468 17.6667 13.9201 18.6L15.4401 22.44C15.7868 23.3067 16.3334 23.3067 16.6801 22.44L19.7334 14.6933C20.0268 13.9467 20.5734 13.92 20.9468 14.6267L22.3334 17.2533C22.7468 18.04 23.8134 18.68 24.6934 18.68H30.1068" stroke="#199A8E" stroke-width="2" stroke-linecap="round" stroke-linejoin="round"/>
</svg>
