<svg width="11" height="11" viewBox="0 0 11 11" fill="none" xmlns="http://www.w3.org/2000/svg">
<path fill-rule="evenodd" clip-rule="evenodd" d="M0.895874 4.58883C0.895874 2.09723 2.97798 0.083374 5.49649 0.083374C8.02211 0.083374 10.1042 2.09723 10.1042 4.58883C10.1042 5.84437 9.64759 7.01001 8.89602 7.99798C8.0669 9.08778 7.04496 10.0373 5.89467 10.7826C5.6314 10.9549 5.39381 10.9678 5.10487 10.7826C3.94802 10.0373 2.92609 9.08778 2.10406 7.99798C1.35195 7.01001 0.895874 5.84437 0.895874 4.58883ZM3.98025 4.7291C3.98025 5.56379 4.66135 6.22027 5.49649 6.22027C6.33217 6.22027 7.01983 5.56379 7.01983 4.7291C7.01983 3.90092 6.33217 3.21248 5.49649 3.21248C4.66135 3.21248 3.98025 3.90092 3.98025 4.7291Z" fill="#3B4453"/>
</svg>
