<svg width="22" height="20" viewBox="0 0 22 20" fill="none" xmlns="http://www.w3.org/2000/svg">
<path d="M13.642 6.24963L6.90581 12.8661C6.66318 13.1006 6.52688 13.4185 6.52688 13.75C6.52688 14.0815 6.66318 14.3995 6.90581 14.6339C7.14843 14.8683 7.4775 15 7.82063 15C8.16375 15 8.49282 14.8683 8.73545 14.6339L16.7654 6.7674C17.0057 6.53525 17.1963 6.25966 17.3263 5.95634C17.4563 5.65303 17.5233 5.32794 17.5233 4.99963C17.5233 4.67133 17.4563 4.34624 17.3263 4.04293C17.1963 3.73961 17.0057 3.46401 16.7654 3.23187C16.5251 2.99972 16.2399 2.81557 15.926 2.68994C15.612 2.5643 15.2756 2.49963 14.9358 2.49963C14.596 2.49963 14.2595 2.5643 13.9456 2.68994C13.6317 2.81557 13.3464 2.99972 13.1061 3.23187L5.07617 11.0984C4.34829 11.8016 3.93938 12.7555 3.93938 13.75C3.93938 14.7446 4.34829 15.6984 5.07617 16.4017C5.80404 17.1049 6.79126 17.5 7.82063 17.5C8.85 17.5 9.83721 17.1049 10.5651 16.4017L17.1998 9.99964" stroke="#ADADAD" stroke-linecap="round" stroke-linejoin="round"/>
</svg>
