<svg width="24" height="28" viewBox="0 0 24 28" fill="none" xmlns="http://www.w3.org/2000/svg">
<path d="M7.64741 28C6.70474 27.9498 5.81768 27.5459 5.16933 26.8716C4.39367 26.1383 3.70149 25.3242 3.10502 24.4438C2.17327 23.1327 1.43676 21.6977 0.917778 20.182C0.330422 18.5515 0.0214308 16.8367 0.00330434 15.1071C-0.0423258 13.4099 0.385374 11.7329 1.24009 10.2575C1.86609 9.19402 2.759 8.30594 3.8336 7.67801C4.89632 7.05276 6.10901 6.7162 7.34758 6.70279C8.28127 6.75707 9.19879 6.96679 10.061 7.32299C10.7491 7.62056 11.4717 7.82975 12.2138 7.94465C13.0323 7.77615 13.8322 7.52945 14.6019 7.20808C15.5129 6.85855 16.4774 6.66282 17.4548 6.62914C17.5852 6.62914 17.7141 6.62914 17.8385 6.64387C19.9823 6.70427 21.9762 7.73841 23.2354 9.44284C22.2526 9.95937 21.4349 10.7336 20.873 11.6794C20.3111 12.6253 20.0272 13.7057 20.0528 14.8007C20.043 15.6379 20.2139 16.4677 20.5542 17.2353C20.8945 18.0029 21.3965 18.6909 22.0271 19.254C22.6013 19.7913 23.2697 20.222 24 20.5253C23.8501 20.9672 23.6777 21.3944 23.4948 21.8246C23.0795 22.7751 22.5672 23.6818 21.9657 24.5307C21.3969 25.3811 20.7348 26.1676 19.9913 26.876C19.3131 27.5373 18.4091 27.9273 17.4548 27.9705C16.6458 27.9353 15.851 27.7488 15.1131 27.4211C14.3174 27.0804 13.4622 26.8939 12.5946 26.8716C11.7024 26.8889 10.822 27.0744 10.0011 27.4181C9.29203 27.7325 8.53452 27.9281 7.75984 27.9971L7.64741 28ZM12.3697 6.62914C12.2573 6.62914 12.1448 6.62914 12.0324 6.61588C12.0087 6.44053 11.9962 6.2639 11.9949 6.08702C12.0439 4.61555 12.6291 3.21032 13.644 2.12722C14.2116 1.50475 14.8995 0.999472 15.6678 0.640817C16.3837 0.278651 17.1661 0.0607767 17.969 0C17.9915 0.192982 17.9915 0.381544 17.9915 0.561267C17.9704 2.00961 17.4166 3.40152 16.4324 4.47982C15.9558 5.10771 15.3452 5.62548 14.6433 5.99678C13.9415 6.36809 13.1655 6.58392 12.3697 6.62914Z" fill="black"/>
</svg>
