<svg width="39" height="13" viewBox="0 0 39 13" fill="none" xmlns="http://www.w3.org/2000/svg">
<path d="M4.13636 0.363636L5.15909 8.56818H5.25L9 0.363636H12.5682L6.79545 12H2.47727L0.568182 0.363636H4.13636ZM16.848 0.363636L14.9162 12H11.7571L13.6889 0.363636H16.848ZM24.0043 4C24.0384 3.625 23.9474 3.33144 23.7315 3.11932C23.5156 2.90341 23.152 2.79545 22.6406 2.79545C22.3149 2.79545 22.0421 2.83333 21.8224 2.90909C21.6065 2.98485 21.438 3.08902 21.3168 3.22159C21.1993 3.35417 21.1255 3.50758 21.0952 3.68182C21.0611 3.81818 21.063 3.94318 21.1009 4.05682C21.1425 4.16667 21.2202 4.26705 21.3338 4.35795C21.4512 4.44886 21.6046 4.5303 21.794 4.60227C21.9872 4.67424 22.2164 4.73864 22.4815 4.79545L23.3906 5C24.0118 5.13636 24.5327 5.31629 24.9531 5.53977C25.3774 5.75947 25.7107 6.02083 25.9531 6.32386C26.1955 6.62689 26.3546 6.96591 26.4304 7.34091C26.5099 7.71591 26.5118 8.125 26.4361 8.56818C26.3073 9.33333 26.0099 9.98106 25.544 10.5114C25.0781 11.0417 24.4702 11.4451 23.7202 11.7216C22.9702 11.9981 22.1027 12.1364 21.1179 12.1364C20.1103 12.1364 19.2543 11.9867 18.5497 11.6875C17.849 11.3845 17.3414 10.9223 17.027 10.3011C16.7164 9.67614 16.6406 8.87879 16.7997 7.90909H19.7997C19.7543 8.26515 19.7921 8.56439 19.9134 8.80682C20.0346 9.04924 20.2296 9.23295 20.4986 9.35795C20.7675 9.48295 21.1027 9.54545 21.5043 9.54545C21.8452 9.54545 22.1368 9.50379 22.3793 9.42045C22.6217 9.33712 22.813 9.22159 22.9531 9.07386C23.0933 8.92614 23.1785 8.75758 23.2088 8.56818C23.2391 8.39394 23.2088 8.23864 23.1179 8.10227C23.027 7.96591 22.8622 7.8428 22.6236 7.73295C22.3849 7.62311 22.0573 7.52273 21.6406 7.43182L20.527 7.18182C19.5384 6.95455 18.7921 6.57955 18.2884 6.05682C17.7846 5.53409 17.6065 4.81818 17.7543 3.90909C17.8755 3.16667 18.1804 2.51894 18.669 1.96591C19.1615 1.40909 19.7865 0.977272 20.544 0.670454C21.3054 0.359848 22.1482 0.204545 23.0724 0.204545C24.0118 0.204545 24.7978 0.361742 25.4304 0.676136C26.0668 0.99053 26.5232 1.43182 26.7997 2C27.08 2.56818 27.1558 3.23485 27.027 4H24.0043ZM29.6392 12H26.2301L32.0028 0.363636H36.321L38.2301 12H34.821L33.6847 3.56818H33.5938L29.6392 12ZM29.7756 7.40909H36.1847L35.7756 9.77273H29.3665L29.7756 7.40909Z" fill="#1A1F71"/>
</svg>
